<?xml version="1.0" standalone="no"?>
<!DOCTYPE svg PUBLIC "-//W3C//DTD SVG 20010904//EN"
 "http://www.w3.org/TR/2001/REC-SVG-20010904/DTD/svg10.dtd">
<svg version="1.0" xmlns="http://www.w3.org/2000/svg"
 width="714.000000pt" height="130.000000pt" viewBox="0 0 714.000000 130.000000"
 preserveAspectRatio="xMidYMid meet">

<g transform="translate(0.000000,130.000000) scale(0.100000,-0.100000)"
fill="#000000" stroke="none">
<path d="M0 1285 c0 -11 11 -15 35 -15 20 0 49 -7 65 -15 62 -32 60 -8 60
-588 0 -382 -3 -534 -12 -550 -17 -33 -37 -45 -95 -57 -34 -7 -53 -17 -53 -26
0 -12 37 -14 225 -14 189 0 225 2 225 14 0 10 -16 17 -47 21 -88 11 -135 28
-169 60 l-34 32 0 484 1 484 207 -545 c193 -505 210 -545 233 -548 24 -3 32
17 248 585 123 323 226 590 228 592 2 3 2 -241 1 -541 l-3 -546 -24 -26 c-13
-14 -40 -27 -62 -31 -24 -4 -39 -12 -39 -21 0 -12 39 -14 230 -14 198 0 230 2
230 15 0 12 -17 15 -92 15 -71 1 -89 3 -75 11 45 26 47 47 47 617 l0 539 25
27 c17 19 34 26 60 26 24 0 35 4 35 15 0 13 -25 15 -168 15 l-168 0 -189 -495
c-104 -272 -190 -494 -191 -492 -1 1 -222 581 -371 975 -4 9 -50 12 -184 12
-152 0 -179 -2 -179 -15z"/>
<path d="M2395 1276 c-95 -17 -121 -25 -123 -39 -3 -14 4 -17 43 -17 40 0 47
-3 55 -26 13 -34 13 -1064 0 -1098 -7 -19 -21 -29 -55 -38 -25 -7 -45 -18 -45
-25 0 -10 44 -13 205 -13 176 0 205 2 205 15 0 12 -16 15 -82 15 -67 1 -80 3
-67 13 38 29 39 41 39 626 0 369 4 572 10 576 6 3 10 13 10 21 0 19 -47 17
-195 -10z"/>
<path d="M2848 1276 c-99 -17 -118 -23 -118 -38 0 -14 8 -18 39 -18 69 0 66
27 66 -575 0 -510 -1 -544 -18 -563 -10 -11 -34 -23 -53 -26 -20 -4 -34 -13
-34 -21 0 -13 32 -15 205 -15 176 0 205 2 205 15 0 12 -16 15 -80 15 l-81 0
23 31 23 31 3 579 c1 368 6 579 12 579 6 0 10 7 10 15 0 20 -52 18 -202 -9z"/>
<path d="M6858 1276 c-99 -17 -118 -23 -118 -38 0 -14 8 -18 39 -18 69 0 66
27 66 -575 0 -510 -1 -544 -18 -563 -10 -11 -34 -23 -53 -26 -20 -4 -34 -13
-34 -21 0 -13 32 -15 200 -15 171 0 200 2 200 15 0 12 -15 15 -75 15 l-76 0
23 31 23 31 3 579 c1 368 6 579 12 579 6 0 10 7 10 15 0 20 -52 18 -202 -9z"/>
<path d="M5611 1196 c-33 -149 -137 -256 -248 -256 -14 0 -23 -6 -23 -15 0
-12 14 -15 65 -15 l65 0 0 -373 c0 -394 4 -429 49 -483 95 -115 304 -33 356
140 12 39 12 45 -2 50 -18 7 -16 10 -32 -30 -29 -74 -106 -112 -151 -76 l-25
20 -3 376 -3 376 96 0 c78 0 95 3 95 15 0 12 -17 15 -95 15 l-95 0 0 155 c0
144 -1 155 -18 155 -15 0 -22 -13 -31 -54z"/>
<path d="M1795 947 c-135 -45 -227 -144 -271 -292 -25 -83 -25 -267 0 -350 41
-136 103 -218 204 -267 60 -30 75 -33 152 -33 72 1 93 5 136 27 94 49 158 150
171 267 6 58 5 63 -13 59 -13 -2 -21 -15 -26 -45 -21 -124 -103 -191 -224
-181 -127 11 -199 117 -220 328 l-7 70 268 0 268 0 -5 89 c-9 146 -70 250
-183 309 -60 31 -185 40 -250 19z m159 -52 c49 -46 86 -166 86 -282 l0 -43
-171 0 -170 0 6 48 c18 135 56 234 106 277 42 35 105 35 143 0z"/>
<path d="M3516 949 c-107 -25 -219 -117 -271 -222 -93 -190 -63 -447 70 -595
117 -130 326 -168 488 -88 108 52 200 177 228 306 7 31 9 100 7 164 -6 127
-30 203 -95 287 -95 124 -270 185 -427 148z m199 -57 c40 -32 70 -79 97 -153
20 -58 22 -81 22 -259 0 -178 -2 -201 -22 -259 -46 -127 -106 -183 -197 -183
-121 0 -194 111 -217 335 -26 245 29 462 136 528 43 28 140 23 181 -9z"/>
<path d="M6263 948 c-106 -23 -225 -143 -267 -268 -27 -79 -33 -264 -12 -353
43 -184 166 -307 322 -323 185 -19 322 100 348 304 6 47 5 52 -12 52 -15 0
-21 -10 -26 -41 -18 -116 -102 -189 -213 -189 -61 0 -116 31 -160 88 -41 54
-62 124 -70 230 l-6 82 268 0 268 0 -6 78 c-20 258 -194 394 -434 340z m156
-53 c44 -37 72 -122 79 -232 l5 -93 -168 0 -168 0 6 63 c16 166 89 287 175
287 29 0 49 -7 71 -25z"/>
<path d="M4040 925 c0 -11 12 -15 50 -15 49 0 49 0 40 -25 -5 -14 -7 -38 -4
-55 4 -16 70 -204 148 -417 141 -384 143 -388 172 -391 l29 -3 95 296 95 296
16 -38 c8 -21 58 -154 110 -296 l94 -258 29 3 c28 3 30 7 93 203 182 565 205
631 225 652 12 12 36 26 55 29 18 3 33 12 33 20 0 11 -31 14 -165 14 -133 0
-165 -3 -165 -14 0 -9 18 -16 52 -20 28 -4 64 -14 80 -22 23 -12 28 -21 28
-52 0 -29 -117 -421 -156 -522 -6 -16 -204 510 -204 542 0 28 36 58 70 58 20
0 30 5 30 15 0 13 -28 15 -195 15 -167 0 -195 -2 -195 -15 0 -12 13 -15 57
-15 44 0 54 -3 45 -12 -19 -19 -14 -70 13 -142 14 -37 25 -74 25 -83 0 -21
-112 -374 -117 -369 -6 5 -182 484 -192 523 -9 31 -7 38 14 59 13 13 36 24 50
24 16 0 25 6 25 15 0 13 -28 15 -190 15 -162 0 -190 -2 -190 -15z"/>
</g>
</svg>
